:SAMPLES-PER-SECOND 24
:FULLY-SPECIFIED
:DEGREES
170
root  -10.1012 39.4774 5.54313 -0.129639 -58.3357 -30.3184
RightUpLeg  -57.185 -31.9149 -4.87794
RightLeg  78.7536 1.35795 6.71515
RightFoot  33.5898 -4.86406 12.3021
RightToes  -1.46215e-006 3.27826e-006 1.63871e-007
Spine  7.85992 -5.55677 -17.666
Spine1  19.7073 -14.1187 18.4462
HEad  6.83549 -9.96757 9.87373
LeftShoulder1  2.68164 -4.54703 -27.2201
LeftArm  35.2867 4.87446 -40.6089
LeftForeArm  -1.25339 -29.7819 -6.5551
LeftHand  -0.883104 1.69496 27.4791
RightShoulder  4.34833 6.47723 37.6076
RightArm  7.06059 -32.4607 25.8673
RightForeArm  -25.4955 36.1011 9.50292
RightHand  -1.87304 5.51699 -20.0435
LeftUpLeg  18.35 14.1074 27.0815
LeftLeg  25.6264 -3.82278 -1.65437
LeftFoot  -17.1628 -0.362628 -9.10188
LeftToes  1.24762e-006 1.46925e-008 1.29056e-009
171
root  -10.76 39.1311 5.31133 -4.03635 -61.8477 -24.2002
RightUpLeg  -44.0646 -25.0366 -8.10263
RightLeg  74.2027 2.17148 7.62124
RightFoot  34.4904 -5.69168 14.0111
RightToes  -1.46215e-006 3.27826e-006 1.63871e-007
Spine  5.89447 -5.42281 -20.6556
Spine1  20.6777 -13.7371 15.6042
HEad  4.1155 -6.85308 9.27777
LeftShoulder1  2.70477 -4.55567 -27.4787
LeftArm  28.3455 11.9708 -37.75
LeftForeArm  -4.11209 -34.6842 -8.00866
LeftHand  -0.863034 1.74024 27.1978
RightShoulder  4.36823 6.49706 37.7163
RightArm  8.82794 -38.0039 25.474
RightForeArm  -27.684 46.9829 13.6592
RightHand  -1.84433 4.06589 -22.6355
LeftUpLeg  18.9315 16.6489 24.6604
LeftLeg  26.4702 -2.46876 -1.27902
LeftFoot  -17.7467 -0.439075 -9.73468
LeftToes  1.24762e-006 1.46925e-008 1.29056e-009
172
root  -11.3114 38.8954 5.1858 -7.04263 -64.8783 -18.7035
RightUpLeg  -33.4546 -18.0366 -10.0399
RightLeg  65.6625 2.4251 5.27002
RightFoot  33.1223 -5.07558 12.9638
RightToes  -1.46215e-006 3.27826e-006 1.63871e-007
Spine  3.87481 -5.36188 -20.4259
Spine1  21.6266 -12.6606 12.3026
HEad  1.13471 -4.98008 8.06138
LeftShoulder1  2.67441 -4.61605 -26.8353
LeftArm  24.7459 17.7323 -37.2239
LeftForeArm  -9.32254 -38.3258 -9.39633
LeftHand  -0.749713 2.14373 26.5677
RightShoulder  4.39434 6.52714 37.8411
RightArm  12.6753 -44.2324 23.5138
RightForeArm  -28.736 58.7901 21.1864
RightHand  -1.68808 2.43158 -24.9188
LeftUpLeg  18.8896 19.2725 22.5547
LeftLeg  26.7399 -1.78685 -1.05601
LeftFoot  -17.4906 -0.34769 -8.40988
LeftToes  1.24762e-006 1.46925e-008 1.29056e-009
173
root  -11.8907 38.7757 5.05754 -7.91338 -65.6831 -14.1633
RightUpLeg  -24.9988 -13.7246 -11.4396
RightLeg  54.0667 2.22488 2.85402
RightFoot  32.623 -4.00692 10.4856
RightToes  -1.46215e-006 3.27826e-006 1.63871e-007
Spine  2.07853 -5.72854 -18.9465
Spine1  20.9549 -11.9113 10.0132
HEad  -2.61204 -4.56015 6.13194
LeftShoulder1  2.64645 -4.53304 -26.828
LeftArm  22.7188 21.8853 -37.1802
LeftForeArm  -14.7427 -42.1381 -11.0135
LeftHand  -0.573372 2.74502 24.9064
RightShoulder  4.4133 6.55065 37.924
RightArm  17.4586 -49.9295 20.1896
RightForeArm  -24.4844 68.812 34.3834
RightHand  -1.42786 0.684561 -27.015
LeftUpLeg  16.1898 21.2263 20.4129
LeftLeg  27.6104 -3.04067 -1.54278
LeftFoot  -17.4646 -0.314501 -7.82268
LeftToes  1.24762e-006 1.46925e-008 1.29056e-009
174
root  -12.3691 39.0037 4.97302 -9.08522 -65.958 -9.36285
RightUpLeg  -16.9725 -10.6965 -13.2697
RightLeg  40.4109 4.42221 3.69357
RightFoot  29.7994 -3.89166 10.9171
RightToes  -1.46215e-006 3.27826e-006 1.63871e-007
Spine  1.2728 -5.64125 -16.4932
Spine1  20.3963 -10.7748 8.46878
HEad  -8.44097 -4.99132 4.08759
LeftShoulder1  2.71074 -4.46053 -27.9672
LeftArm  20.9674 23.9049 -36.542
LeftForeArm  -19.7199 -46.1607 -12.9063
LeftHand  -0.34677 3.59824 22.0401
RightShoulder  4.38741 6.54114 37.7153
RightArm  21.0418 -53.1413 18.205
RightForeArm  -14.5617 74.3018 51.4052
RightHand  -1.11509 -0.962785 -28.8348
LeftUpLeg  14.8129 20.6114 17.2106
LeftLeg  24.165 -0.430193 -1.28816
LeftFoot  -15.6281 -0.225672 -8.54094
LeftToes  1.24762e-006 1.46925e-008 1.29056e-009
175
root  -12.8597 39.2701 4.78854 -12.8252 -66.2921 -1.66119
RightUpLeg  -11.7724 -9.08826 -15.8857
RightLeg  30.0695 6.7381 3.98112
RightFoot  19.7894 -3.71109 13.8372
RightToes  -1.46215e-006 3.27826e-006 1.63871e-007
Spine  1.27507 -5.41291 -14.714
Spine1  19.832 -9.2733 6.65795
HEad  -14.5409 -5.45944 2.97146
LeftShoulder1  2.75895 -4.56925 -28.1113
LeftArm  19.2923 25.1841 -36.189
LeftForeArm  -22.2032 -49.6976 -14.7237
LeftHand  -0.232926 3.97389 18.4567
RightShoulder  4.4087 6.56641 37.8135
RightArm  23.1097 -52.8939 18.243
RightForeArm  -2.01769 76.5772 67.5116
RightHand  -0.906102 -1.97356 -30.2837
LeftUpLeg  14.3691 22.4998 14.8032
LeftLeg  20.3891 -3.0014 -3.11523
LeftFoot  -14.0819 -0.176034 -11.1807
LeftToes  1.24762e-006 1.46925e-008 1.29056e-009
176
root  -13.2715 39.1707 4.36294 -13.4078 -65.7807 4.32405
RightUpLeg  -12.5114 -11.2411 -17.1052
RightLeg  25.1836 7.66504 3.70487
RightFoot  10.2985 -2.74297 14.6548
RightToes  -1.46215e-006 3.27826e-006 1.63871e-007
Spine  0.767947 -6.13099 -13.3998
Spine1  18.3984 -8.88353 4.90333
HEad  -19.1171 -5.70057 1.50345
LeftShoulder1  2.7566 -4.77577 -27.2056
LeftArm  19.4753 25.1569 -36.0648
LeftForeArm  -23.3124 -52.4845 -16.3255
LeftHand  -0.226153 3.74621 15.3672
RightShoulder  4.40823 6.56872 37.7992
RightArm  23.6345 -50.1402 18.7441
RightForeArm  17.3052 77.5436 86.1263
RightHand  -0.908142 -2.04893 -31.0048
LeftUpLeg  8.28235 27.1546 13.5789
LeftLeg  26.3774 -17.8997 -9.08971
LeftFoot  -15.8323 -0.633577 -18.4234
LeftToes  1.24762e-006 1.46925e-008 1.29056e-009
177
root  -13.6051 38.821 4.06716 -13.6285 -68.8745 8.08722
RightUpLeg  -16.13 -12.7523 -16.0828
RightLeg  24.5166 10.1256 4.80805
RightFoot  6.35163 -1.822 11.9543
RightToes  -1.46215e-006 3.27826e-006 1.63871e-007
Spine  -0.106858 -5.79822 -9.98439
Spine1  18.2745 -7.57419 3.10061
HEad  -21.9095 -4.94129 -2.02702
LeftShoulder1  2.74911 -4.8864 -26.6594
LeftArm  21.5672 22.6758 -35.9724
LeftForeArm  -26.304 -54.4294 -17.7113
LeftHand  -0.183857 3.87221 13.242
RightShoulder  4.19148 6.42334 36.2991
RightArm  21.3879 -46.6422 20.2235
RightForeArm  39.9613 77.0315 107.08
RightHand  -0.926699 -1.91804 -30.4479
LeftUpLeg  4.02838 23.5316 12.9891
LeftLeg  32.0954 -21.9107 -13.8009
LeftFoot  -17.438 -1.05764 -21.6859
LeftToes  1.24762e-006 1.46925e-008 1.29056e-009
178
root  -14.0256 38.4092 4.01841 -21.8653 -75.5282 16.3936
RightUpLeg  -18.7977 -11.6978 -15.1091
RightLeg  27.2474 13.7688 7.39329
RightFoot  3.30808 -1.14858 9.08483
RightToes  -1.46215e-006 3.27826e-006 1.63871e-007
Spine  0.102028 -4.2381 -7.04344
Spine1  19.1046 -5.31932 1.52329
HEad  -21.4969 -1.67521 -5.7178
LeftShoulder1  2.71445 -4.85644 -26.3511
LeftArm  23.4823 20.6779 -35.7696
LeftForeArm  -29.225 -56.6852 -19.4653
LeftHand  -0.130165 4.13256 10.7529
RightShoulder  3.96762 6.28809 34.6302
RightArm  18.9915 -42.5334 21.9632
RightForeArm  61.199 74.2234 128.486
RightHand  -0.710203 -2.78613 -31.1585
LeftUpLeg  8.70797 18.5579 12.6649
LeftLeg  28.4809 -12.0082 -6.79976
LeftFoot  -16.6926 -0.629298 -15.1373
LeftToes  1.24762e-006 1.46925e-008 1.29056e-009
179
root  -14.3434 37.8232 3.93038 -24.6554 -79.2742 20.0901
RightUpLeg  -23.1567 -12.2324 -13.2047
RightLeg  32.7481 14.9572 9.91516
RightFoot  0.197942 -0.740561 7.33219
RightToes  -1.46215e-006 3.27826e-006 1.63871e-007
Spine  -0.574915 -4.54601 -6.66817
Spine1  18.2554 -5.97837 2.737
HEad  -17.298 3.56633 -7.15488
LeftShoulder1  2.70689 -4.80093 -26.4818
LeftArm  23.925 22.0113 -34.5491
LeftForeArm  -27.6759 -60.6941 -22.858
LeftHand  -0.121314 3.80571 7.87015
RightShoulder  3.95535 6.25634 34.6354
RightArm  18.2829 -36.8832 22.2532
RightForeArm  79.8612 68.2996 145.924
RightHand  -0.339371 -4.26686 -34.6904
LeftUpLeg  11.2335 9.94226 10.7285
LeftLeg  26.6557 1.56728 1.24059
LeftFoot  -15.8571 -0.218876 -8.1111
LeftToes  1.24762e-006 1.46925e-008 1.29056e-009
180
root  -14.6614 37.1829 3.90359 -32.5896 -81.1071 27.8798
RightUpLeg  -26.5724 -13.5723 -13.0264
RightLeg  39.4904 15.8351 13.3277
RightFoot  -1.86422 -0.506867 5.95509
RightToes  -1.46215e-006 3.27826e-006 1.63871e-007
Spine  -0.68281 -4.73594 -9.59947
Spine1  17.0526 -7.26141 6.27931
HEad  -12.0763 7.92853 -7.68696
LeftShoulder1  2.74644 -4.7338 -27.2531
LeftArm  23.4306 25.2958 -32.7506
LeftForeArm  -20.8344 -66.1584 -29.2536
LeftHand  -0.112178 3.44566 5.85465
RightShoulder  3.85755 6.08095 34.3603
RightArm  15.3547 -30.0051 24.1984
RightForeArm  94.6708 61.794 155.407
RightHand  -0.0998896 -5.06386 -36.6475
LeftUpLeg  15.2208 5.06251 9.46763
LeftLeg  25.1677 2.66174 1.71155
LeftFoot  -18.4974 -0.549178 -10.528
LeftToes  1.24762e-006 1.46925e-008 1.29056e-009
